<?xml version="1.0" encoding="UTF-8"?>
<svg id="Capa_2" data-name="Capa 2" xmlns="http://www.w3.org/2000/svg" viewBox="0 0 49.99 27.26">
  <defs>
    <style>
      .cls-1 {
        fill: #f6f6f6;
        stroke-width: 0px;
      }
    </style>
  </defs>
  <g id="Capa_1-2" data-name="Capa 1">
    <g>
      <path class="cls-1" d="m2.87,13.97l4.47,5.96c.22.3.37.57.45.81.07.24.11.54.11.91,0,.46-.07.87-.21,1.21-.14.34-.3.51-.48.51-.12,0-.3-.16-.54-.49L0,13.97,6.66,5.06c.24-.31.42-.47.54-.47.19,0,.35.17.49.5s.21.73.21,1.2c0,.37-.04.67-.11.91-.07.24-.22.51-.45.81l-4.47,5.96Z"/>
      <path class="cls-1" d="m11.64,15.25v4.86h1.41c.33,0,.57.15.71.46.14.31.21.71.21,1.21s-.07.88-.21,1.19c-.14.31-.38.46-.71.46h-3.01c-.33,0-.57-.15-.71-.46-.14-.31-.21-.71-.21-1.21s.07-.88.22-1.19c.14-.31.38-.46.71-.46h.22V7.12h-.22c-.33,0-.57-.15-.71-.46-.14-.31-.21-.71-.21-1.21s.07-.9.21-1.21c.14-.31.38-.46.71-.46l6.49.02v5.07c0,.79-.06,1.35-.19,1.69s-.29.51-.5.51-.37-.17-.49-.5-.19-.9-.19-1.7v-1.75h-3.52v4.81h1.21c0-.86.03-1.42.1-1.67.14-.53.34-.79.59-.79.2,0,.37.17.49.51s.19.91.19,1.71v3.82c0,.8-.06,1.37-.19,1.71s-.29.51-.5.51c-.25,0-.45-.26-.59-.79-.07-.25-.1-.81-.1-1.69h-1.21Z"/>
      <path class="cls-1" d="m24.32,17.76h-5.66c.14.86.4,1.56.76,2.09s.86.79,1.48.79c.51,0,1.19-.26,2.04-.79.35-.22.59-.32.73-.32.18,0,.34.16.46.47.13.31.19.71.19,1.18,0,.43-.07.8-.2,1.1-.18.4-.62.78-1.31,1.14s-1.36.54-2.01.54c-1.1,0-1.99-.75-2.65-2.25-.66-1.5-.99-3.35-.99-5.54,0-2.33.36-4.23,1.07-5.7.72-1.46,1.54-2.2,2.47-2.2.56,0,1.08.24,1.54.71s.82.99,1.05,1.54c.32.8.59,1.79.8,2.97.14.82.22,1.77.22,2.85v1.41Zm-1.53-3.32c-.21-.95-.49-1.66-.83-2.13-.34-.47-.75-.71-1.22-.71s-.87.23-1.21.71c-.34.47-.62,1.18-.83,2.13h4.09Z"/>
      <path class="cls-1" d="m28.84,8.72v2.07c.58-1,1.04-1.67,1.37-2.01.33-.33.65-.5.94-.5.45,0,.88.4,1.31,1.2.29.54.43,1.09.43,1.65,0,.48-.07.88-.21,1.21s-.3.49-.49.49c-.17,0-.35-.21-.54-.62s-.36-.62-.5-.62c-.19,0-.48.29-.86.88s-.86,1.46-1.44,2.63v5.01h1.97c.33,0,.57.15.71.46.14.31.21.71.21,1.21s-.07.88-.21,1.19c-.14.31-.38.46-.71.46h-4.17c-.33,0-.57-.15-.71-.46-.14-.31-.21-.71-.21-1.21s.07-.88.21-1.19c.14-.31.38-.46.71-.46h.82v-8.07h-.5c-.33,0-.57-.15-.71-.46-.14-.31-.21-.71-.21-1.21s.07-.88.21-1.19c.14-.31.38-.46.71-.46h1.88Z"/>
      <path class="cls-1" d="m40.24,2.85l-4.42,22.95c-.11.57-.21.95-.3,1.12-.12.23-.26.34-.42.34-.19,0-.35-.16-.49-.49s-.21-.69-.21-1.1c0-.29.05-.72.16-1.28L38.99,1.46c.11-.57.21-.95.3-1.12.12-.23.26-.34.42-.34.19,0,.35.16.49.48.13.32.2.68.2,1.09,0,.29-.05.72-.16,1.28Z"/>
      <path class="cls-1" d="m47.12,13.97l-4.47-5.96c-.22-.3-.37-.57-.45-.81s-.11-.54-.11-.91c0-.46.07-.86.21-1.2.14-.33.3-.5.49-.5.12,0,.3.16.54.47l6.66,8.91-6.66,8.91c-.24.32-.42.49-.54.49-.19,0-.35-.17-.49-.5-.14-.33-.21-.74-.21-1.22,0-.37.04-.67.11-.91.07-.24.22-.51.45-.81l4.47-5.96Z"/>
    </g>
  </g>
</svg>